<?xml version="1.0" standalone="no"?>
<!DOCTYPE svg PUBLIC "-//W3C//DTD SVG 20010904//EN"
 "http://www.w3.org/TR/2001/REC-SVG-20010904/DTD/svg10.dtd">
<svg version="1.0" xmlns="http://www.w3.org/2000/svg"
 width="640.000000pt" height="640.000000pt" viewBox="0 0 640.000000 640.000000"
 preserveAspectRatio="xMidYMid meet">
<metadata>
Created by potrace 1.16, written by Peter Selinger 2001-2019
</metadata>
<g transform="translate(0.000000,640.000000) scale(0.100000,-0.100000)"
fill="#000000" stroke="none">
<path d="M880 3467 l0 -803 -30 -11 c-29 -11 -30 -13 -30 -76 0 -104 -14 -97
191 -97 108 0 179 4 179 10 0 5 9 34 21 65 42 112 162 195 283 195 92 0 154
-25 217 -89 50 -50 72 -89 95 -168 2 -9 25 -13 69 -13 56 0 65 2 65 18 0 33
60 140 96 171 86 76 211 102 315 65 95 -34 199 -155 199 -231 l0 -23 1064 0
1064 0 7 33 c49 225 333 315 505 160 53 -48 100 -127 100 -170 0 -23 2 -23
139 -23 159 0 151 -5 151 96 0 59 -2 65 -24 74 -13 4 -26 20 -30 34 l-6 26
-125 0 c-125 0 -125 0 -125 24 0 84 52 126 159 126 69 0 71 1 67 23 -3 12 -15
83 -26 157 -11 74 -23 145 -25 158 -5 21 -9 22 -125 22 -115 0 -121 1 -130 23
-5 12 -32 119 -61 237 -28 118 -57 238 -63 265 l-12 50 -417 3 -417 2 0 -569
0 -569 -40 -4 -40 -4 0 808 0 808 -1630 0 -1630 0 0 -803z m4127 -2 c29 -115
52 -216 53 -222 0 -10 -73 -13 -335 -13 l-335 0 0 225 0 225 283 -2 282 -3 52
-210z m-3989 -687 l-3 -93 -40 0 -40 0 -3 93 -3 92 46 0 46 0 -3 -92z"/>
<path d="M1435 2709 c-83 -20 -164 -92 -196 -174 -21 -54 -14 -156 14 -212 54
-106 148 -159 267 -151 84 6 146 40 197 106 82 107 67 269 -34 364 -59 56
-170 86 -248 67z"/>
<path d="M2178 2706 c-203 -56 -273 -308 -127 -455 108 -109 284 -108 390 1
48 50 70 98 76 168 17 183 -164 335 -339 286z"/>
<path d="M4918 2706 c-93 -25 -165 -96 -194 -192 -18 -60 -18 -88 1 -151 19
-65 85 -139 150 -169 97 -46 221 -25 298 49 64 63 82 107 82 202 0 69 -4 86
-28 127 -38 66 -101 114 -172 133 -69 18 -75 18 -137 1z"/>
</g>
</svg>
