<?xml version="1.0" standalone="no"?>
<!DOCTYPE svg PUBLIC "-//W3C//DTD SVG 20010904//EN"
 "http://www.w3.org/TR/2001/REC-SVG-20010904/DTD/svg10.dtd">
<svg version="1.0" xmlns="http://www.w3.org/2000/svg"
 width="1300.000000pt" height="864.000000pt" viewBox="0 0 1300.000000 864.000000"
 preserveAspectRatio="xMidYMid meet">
<metadata>
Created by potrace 1.16, written by Peter Selinger 2001-2019
</metadata>
<g transform="translate(0.000000,864.000000) scale(0.100000,-0.100000)"
fill="#000000" stroke="none">
<path d="M8319 5509 c-30 -60 -67 -179 -57 -185 4 -3 8 -15 8 -27 1 -18 3 -16
15 11 16 37 21 40 21 13 0 -11 -4 -17 -8 -15 -4 3 -8 -10 -8 -28 0 -25 -3 -29
-10 -18 -7 11 -10 5 -11 -25 0 -22 -3 -53 -6 -70 -11 -70 -18 -325 -8 -325 6
0 5 -4 -1 -8 -7 -4 -12 -48 -13 -116 l-1 -108 34 28 c24 20 35 38 36 59 5 88
4 135 -2 135 -8 0 -12 -16 -9 -33 1 -4 -5 -26 -12 -49 -20 -57 -28 -26 -16 59
14 100 60 325 70 345 5 10 12 37 15 60 l5 43 -25 -30 c-24 -28 -26 -29 -21 -6
2 13 13 42 24 65 20 44 36 180 19 170 -6 -4 -21 -30 -34 -58 -13 -28 -24 -44
-24 -36 0 19 45 116 57 123 12 7 4 67 -8 67 -5 0 -18 -19 -30 -41z"/>
<path d="M8835 5371 l30 -7 -40 -8 c-74 -13 -76 -15 -70 -47 4 -20 2 -28 -5
-24 -13 8 -13 -73 1 -112 7 -23 15 -30 29 -26 12 3 17 10 12 21 -5 15 -4 15
12 0 15 -16 77 -39 116 -44 66 -8 102 -14 150 -24 65 -13 214 -22 185 -11 -19
8 -19 8 0 18 17 10 15 12 -19 18 -25 5 -40 14 -43 26 -3 11 -13 18 -25 16 -12
-1 -23 3 -25 9 -6 17 35 24 66 13 14 -6 101 -10 194 -10 127 0 166 -3 161 -12
-5 -9 -4 -9 6 0 7 6 19 9 28 6 10 -4 13 -1 10 8 -3 8 -9 14 -14 14 -5 0 -24 7
-42 14 -26 11 -30 16 -19 22 8 5 28 4 46 -1 26 -7 33 -5 46 12 14 21 12 22
-37 40 -29 10 -59 18 -68 17 -8 0 6 -7 33 -16 26 -9 45 -18 43 -20 -6 -7 -144
36 -148 46 -2 4 -27 11 -55 15 -40 5 -53 4 -53 -6 0 -8 -5 -6 -11 5 -6 11 -22
17 -42 16 -27 0 -29 -2 -12 -10 22 -10 -71 -2 -140 11 -29 6 -19 8 40 5 70 -3
73 -3 25 4 -30 4 -102 6 -160 4 -72 -3 -100 -1 -91 6 11 7 2 8 -30 5 -32 -3
-39 -2 -24 5 15 7 7 9 -35 9 -43 0 -48 -2 -25 -7z"/>
<path d="M9636 5241 c-15 -17 -15 -19 3 -32 17 -12 24 -43 46 -222 15 -115 25
-217 23 -228 -2 -16 -10 -11 -38 27 -61 80 -143 165 -156 160 -8 -3 -11 1 -7
10 3 9 -1 14 -12 14 -9 0 -13 5 -10 10 3 6 -9 24 -27 40 -26 24 -40 30 -75 28
-36 -1 -43 -4 -43 -22 0 -12 5 -28 10 -36 8 -12 16 -9 47 20 30 28 33 29 13 6
-19 -22 -21 -28 -7 -23 9 4 17 2 17 -4 0 -6 5 -7 10 -4 6 3 10 2 10 -4 0 -6 8
-7 18 -4 14 6 15 4 5 -8 -10 -12 12 -39 123 -153 74 -76 134 -139 135 -140 2
-5 49 -417 49 -438 l0 -27 -42 15 c-23 8 -45 18 -48 22 -10 14 -105 41 -108
32 -5 -15 -23 -12 -37 7 -12 15 -15 14 -40 -13 -14 -16 -24 -23 -20 -16 4 7
-4 16 -21 22 -32 13 -43 1 -36 -36 2 -13 0 -24 -6 -24 -6 0 -100 18 -209 41
-109 22 -206 41 -215 42 -9 1 -15 4 -13 7 2 3 -12 15 -31 25 -65 35 -102 128
-153 384 -16 80 -35 187 -41 236 -20 148 -30 193 -24 105 14 -206 87 -554 139
-663 21 -45 38 -66 74 -88 52 -34 151 -65 261 -84 503 -88 606 -105 613 -105
5 0 7 14 5 30 -3 17 -1 30 3 30 4 0 9 -14 11 -32 4 -38 -2 -36 348 -102 260
-50 456 -90 482 -101 37 -15 248 -51 248 -43 0 5 5 6 10 3 19 -12 9 10 -23 52
-76 99 -173 219 -183 228 -7 6 -33 37 -60 70 -26 33 -66 80 -88 105 -23 25
-56 63 -74 85 -33 40 -33 40 -26 10 4 -16 16 -38 28 -48 11 -10 21 -23 23 -30
15 -62 22 -131 22 -234 l1 -123 -25 12 c-14 6 -25 19 -25 30 0 19 -16 25 -22
7 -3 -10 -84 -22 -139 -21 -40 1 -132 36 -137 52 -4 12 -1 12 19 -1 l24 -16
-1 93 0 94 27 0 c15 0 29 6 31 12 4 10 10 10 32 0 15 -6 25 -15 23 -20 -4 -6
4 -75 16 -135 5 -27 29 -33 50 -12 17 17 23 230 8 280 -5 17 -10 24 -10 16 -1
-8 -4 -12 -7 -9 -3 4 0 16 6 28 7 12 8 20 2 16 -11 -6 -22 15 -22 42 -1 9 -7
31 -15 47 -13 27 -14 19 -13 -97 2 -88 -2 -132 -10 -140 -9 -9 -12 -9 -12 0 0
7 -9 12 -20 12 -19 0 -20 7 -20 124 0 149 6 186 30 186 10 0 23 6 29 14 10 12
6 15 -21 21 -26 5 -81 55 -259 238 -125 128 -230 229 -233 226 -3 -3 52 -64
123 -134 72 -71 127 -133 124 -138 -3 -5 -9 -3 -14 5 -4 7 -64 70 -133 138
-70 71 -120 128 -114 131 6 4 7 12 4 18 -10 15 -29 14 -20 -1 5 -10 3 -10 -7
0 -8 7 -14 18 -14 24 0 15 -63 64 -106 82 -34 14 -38 14 -53 -3z m351 -318
c120 -120 212 -221 220 -241 10 -25 12 -52 8 -97 l-7 -63 -57 5 -56 5 50 -49
50 -50 -45 3 c-25 2 -75 5 -112 8 l-66 4 -5 -57 c-3 -31 -5 -65 -5 -76 0 -11
-2 -33 -4 -50 -4 -31 -1 -31 -80 -26 -27 2 -35 47 -98 590 -35 298 -35 301
-14 301 9 0 109 -93 221 -207z m586 -606 c-3 -5 -1 -7 4 -4 12 7 27 -8 143
-153 41 -51 91 -111 111 -134 45 -52 82 -106 77 -111 -2 -3 -20 6 -39 19 -21
15 -79 34 -159 51 -158 35 -163 37 -154 78 3 18 11 35 17 39 17 11 19 104 2
118 -8 7 -17 28 -20 49 -3 20 -8 52 -11 71 l-6 35 21 -24 c11 -13 18 -28 14
-34z"/>
<path d="M8278 4505 l-38 -25 -1 -538 c-1 -564 -1 -573 -13 -611 -6 -16 -4
-26 5 -32 10 -6 11 -11 3 -16 -14 -10 -26 -133 -13 -133 13 0 11 -67 -3 -91
-10 -17 -10 -23 0 -26 14 -5 17 -63 3 -63 -6 0 -11 -19 -13 -42 l-3 -43 -110
3 c-60 2 -111 5 -112 6 -1 1 -3 17 -5 34 l-2 33 -187 -3 c-175 -3 -185 -4
-175 -21 21 -34 -4 -52 -80 -55 -75 -3 -84 -10 -84 -59 0 -29 3 -33 26 -33 14
0 23 -4 19 -10 -4 -6 -10 -8 -14 -6 -4 3 -8 -1 -8 -9 0 -11 4 -12 14 -3 9 7
38 9 86 5 40 -4 79 -2 87 3 10 7 11 10 3 10 -7 0 -13 9 -13 20 0 11 5 20 10
20 6 0 10 5 10 11 0 5 -4 7 -10 4 -7 -4 -7 3 0 20 6 17 7 33 1 44 -14 26 -1
36 47 36 l44 0 -4 -82 c-3 -75 -1 -82 17 -87 11 -3 93 -5 182 -6 90 0 168 -2
175 -4 7 -3 59 -7 116 -11 l102 -6 0 27 c0 23 -3 26 -25 22 -13 -3 -26 0 -29
6 -3 7 -5 7 -5 -1 -1 -9 -25 -13 -86 -13 l-84 0 4 30 c2 18 -3 36 -11 45 -14
13 -9 15 45 15 34 0 61 3 61 8 0 4 29 6 65 6 55 -1 65 1 70 17 4 11 5 112 4
227 -2 192 -9 242 -31 242 -14 0 -9 -37 6 -49 11 -10 12 -19 4 -42 -8 -24 -13
-27 -24 -18 -8 7 -12 14 -10 17 3 2 -1 13 -8 23 -10 14 -12 57 -9 176 6 198 4
183 17 183 6 0 5 4 -2 9 -11 6 -13 55 -13 222 1 214 1 214 29 272 25 51 27 57
11 57 -26 0 -35 21 -16 35 14 10 17 30 17 99 0 48 -5 96 -10 106 -8 15 -6 24
9 39 17 17 18 31 2 31 -4 0 -23 -11 -43 -25z"/>
<path d="M8834 3870 c-16 -16 -26 -19 -45 -12 -13 5 -33 6 -43 2 -50 -17 43
-29 252 -31 123 -2 166 1 175 11 9 10 9 11 -1 6 -16 -10 -54 3 -46 15 3 5 15
7 27 4 17 -5 19 -4 7 4 -19 14 -187 14 -195 1 -8 -13 -115 -13 -115 -1 0 5 10
12 23 14 19 4 20 4 2 6 -11 0 -30 -8 -41 -19z"/>
<path d="M1170 3231 c0 -8 55 -11 188 -11 104 0 224 -3 267 -7 66 -5 77 -4 70
8 -7 11 -6 12 6 3 14 -11 836 -34 1224 -34 181 0 215 -4 215 -26 0 -17 10 -17
33 0 22 17 22 26 -1 26 -10 0 -24 6 -30 12 -13 13 -115 16 -1419 33 -408 6
-553 5 -553 -4z"/>
<path d="M3290 3195 c0 -13 23 -15 148 -15 265 0 1704 -20 1839 -26 117 -5
131 -8 126 -22 -4 -10 -3 -14 1 -10 4 3 16 -2 27 -13 19 -19 85 -28 74 -9 -3
6 -22 10 -41 10 -36 0 -49 25 -16 33 13 4 12 5 -5 6 -12 0 -24 5 -27 10 -9 15
-157 20 -701 26 -280 4 -699 10 -930 15 -542 12 -495 13 -495 -5z"/>
<path d="M5560 3163 c0 -11 343 -19 1150 -28 567 -6 972 -15 983 -22 4 -2 5
-8 2 -13 -3 -4 4 -6 15 -3 28 8 35 23 11 23 -12 0 -21 5 -21 10 0 7 -37 11
-102 10 -57 0 -339 4 -628 9 -1132 21 -1410 23 -1410 14z"/>
<path d="M10874 3115 c-40 -7 -89 -18 -110 -25 -45 -15 -156 -70 -198 -99 -17
-11 -33 -18 -38 -15 -5 3 -42 -29 -84 -72 -77 -79 -149 -188 -164 -246 -5 -18
-20 -64 -34 -101 -15 -38 -24 -73 -21 -78 4 -5 2 -9 -4 -9 -7 0 -34 -97 -66
-247 -3 -13 -12 -23 -19 -23 -41 0 30 -97 94 -130 34 -17 98 -36 112 -32 12 3
39 -58 32 -70 -5 -7 -3 -8 6 -3 10 6 12 4 7 -9 -4 -9 -3 -15 1 -12 5 3 24 -14
43 -37 64 -78 107 -114 196 -164 117 -66 191 -86 323 -86 154 0 274 39 398
130 17 13 37 21 42 18 6 -4 9 -3 8 2 -2 4 18 28 45 52 26 24 47 49 47 56 0 7
7 19 17 26 19 16 44 72 48 111 2 15 9 37 15 48 9 16 8 25 -1 36 -6 8 -8 14 -3
14 5 0 10 21 12 47 2 28 9 51 17 56 11 6 13 21 9 63 -7 69 14 72 33 4 13 -45
57 -100 80 -100 7 0 15 -11 19 -25 12 -47 70 -44 114 6 23 25 39 30 205 59
237 41 284 55 297 89 6 14 14 34 19 43 34 67 77 193 70 202 -6 7 -2 42 10 91
10 44 16 88 13 98 -3 10 0 17 8 17 10 0 9 3 -2 10 -9 6 -11 13 -5 18 15 11 15
42 -1 42 -8 0 -14 3 -14 8 0 4 -17 8 -39 10 -33 2 -39 -1 -44 -20 -4 -13 -1
-26 6 -30 9 -6 9 -8 -1 -8 -7 0 -12 -6 -11 -12 5 -28 -14 -118 -27 -129 -8 -6
-14 -17 -14 -24 0 -18 -52 -70 -67 -67 -7 2 -13 -2 -13 -9 0 -8 -4 -8 -15 1
-8 7 -15 9 -15 5 0 -4 -6 -3 -12 2 -7 5 -38 9 -68 7 -30 -1 -77 -3 -105 -4
-42 -2 -45 -3 -20 -9 29 -7 29 -7 -20 -20 -27 -8 -57 -13 -66 -12 -12 1 -18
-8 -21 -36 -3 -21 -4 -39 -3 -41 1 -1 49 -9 106 -18 57 -8 120 -19 139 -24 19
-6 50 -10 68 -10 18 0 49 -7 70 -17 20 -9 42 -15 49 -14 6 1 14 -3 18 -9 4 -6
-1 -7 -11 -3 -10 4 -15 2 -11 -4 4 -6 -16 -11 -51 -14 -75 -5 -375 -1 -428 6
-41 6 -41 6 -53 63 -23 104 -26 115 -39 120 -7 2 -12 -6 -13 -20 0 -12 -6 0
-13 27 -7 28 -16 56 -20 63 -5 9 54 12 265 12 243 0 302 4 242 15 -10 2 -130
4 -268 5 l-250 1 -37 78 c-37 76 -47 90 -114 164 -19 20 -33 41 -29 46 3 5 -3
8 -12 7 -10 -2 -40 12 -67 31 -71 49 -191 106 -226 107 -16 1 -30 4 -30 7 0 8
-147 29 -195 28 -22 0 -72 -7 -111 -14z m166 -211 c35 -5 41 -8 25 -14 -11 -4
-24 -4 -29 1 -26 24 -73 -3 -56 -31 8 -12 10 -12 10 -1 0 7 6 11 15 7 8 -3 15
-2 15 3 0 16 35 6 48 -14 10 -14 12 -15 8 -3 -4 13 1 16 22 13 15 -1 27 -4 27
-5 0 -1 10 -3 23 -6 14 -2 21 0 17 6 -10 17 4 11 25 -10 20 -20 46 -28 35 -10
-3 6 1 7 9 4 9 -3 13 -11 9 -17 -3 -6 -1 -7 6 -3 22 14 156 -85 156 -116 0 -3
4 -10 9 -15 5 -5 6 -3 2 5 -4 6 -4 12 -1 12 13 0 36 -30 38 -49 0 -10 7 -17
13 -14 18 7 89 -132 99 -192 2 -11 6 -35 10 -52 6 -27 4 -33 -9 -33 -11 0 -16
-6 -14 -17 2 -11 11 -17 23 -15 16 2 17 1 5 -7 -8 -5 -17 -8 -20 -6 -3 2 -6
-5 -6 -16 0 -10 4 -19 8 -19 4 0 8 -5 8 -11 0 -5 -4 -7 -10 -4 -13 8 -13 -1 1
-27 9 -16 8 -19 -1 -13 -10 6 -11 1 -6 -19 4 -18 3 -25 -4 -21 -5 3 -10 14
-10 23 0 14 -2 15 -10 2 -15 -24 -22 -6 -26 67 -3 74 -26 149 -43 146 -5 -2
-8 4 -4 13 3 8 -2 21 -12 28 -9 7 -18 26 -19 42 -2 31 -25 74 -40 74 -4 0 -3
-7 4 -15 26 -31 -8 -13 -42 23 -19 20 -58 48 -84 62 -27 14 -52 29 -55 33 -3
4 -10 7 -15 6 -5 -1 -16 0 -24 4 -77 29 -227 38 -242 14 -6 -9 -8 -9 -8 0 0
16 -69 -8 -113 -39 -18 -13 -34 -23 -37 -23 -15 0 -123 -105 -116 -113 5 -4
-27 -44 -63 -79 -23 -22 -23 -24 -6 -43 25 -28 43 -25 19 2 -16 19 -16 20 -1
9 20 -16 19 -17 40 28 9 18 14 38 10 44 -3 5 -1 7 5 3 6 -3 19 4 29 17 26 33
132 103 178 118 62 20 191 18 250 -5 63 -24 142 -82 180 -132 162 -211 71
-513 -182 -604 -52 -19 -75 -21 -150 -17 -111 7 -164 17 -157 28 3 5 -2 6 -11
3 -8 -4 -26 1 -40 10 -14 9 -25 14 -25 12 0 -7 83 -63 94 -64 5 0 12 -5 16
-12 4 -6 13 -12 21 -13 8 -2 29 -9 48 -17 l34 -14 -34 -12 c-29 -10 -43 -8
-98 13 -36 13 -70 28 -77 34 -7 6 -17 8 -22 5 -5 -3 -15 3 -24 12 -8 9 -27 25
-41 36 -15 10 -24 23 -20 29 3 6 1 7 -5 3 -6 -4 -17 5 -26 22 -8 16 -21 34
-30 41 -27 23 -68 148 -75 232 -4 44 -5 82 -2 84 2 3 6 22 8 42 2 20 8 43 14
49 7 8 6 15 -2 20 -7 4 -9 3 -6 -3 3 -5 -10 -25 -31 -44 -34 -32 -35 -32 -9
-3 15 17 29 43 31 58 1 14 6 29 9 33 4 3 7 15 7 25 0 10 5 18 11 18 5 0 7 5 3
11 -4 8 -12 2 -21 -15 -20 -38 -25 -32 -6 9 16 34 17 34 34 14 15 -18 18 -18
33 -4 20 20 21 32 2 16 -11 -9 -16 -9 -21 0 -8 11 44 61 56 53 4 -2 15 6 25
19 l19 22 -22 -19 c-13 -11 -23 -14 -23 -8 0 6 5 14 10 17 6 4 8 11 4 16 -3 5
-11 6 -17 2 -7 -4 -6 0 2 10 7 9 9 17 3 17 -5 0 -8 9 -5 20 3 11 10 20 15 20
6 0 8 7 4 15 -3 8 -1 15 4 15 13 0 13 -16 -1 -42 -9 -16 -8 -23 5 -34 9 -8 12
-9 6 -3 -9 12 33 52 93 87 26 15 37 42 18 42 -5 0 -12 7 -15 16 -5 14 -4 15 9
4 13 -10 15 -9 15 10 0 22 1 23 20 5 19 -17 19 -19 4 -37 -16 -17 -16 -18 15
-7 18 7 29 14 24 18 -10 8 -10 32 0 49 11 16 28 6 20 -13 -6 -18 6 -19 27 -4
13 9 12 10 -2 5 -12 -3 -15 -1 -11 10 3 9 14 12 29 10 13 -3 24 -1 24 4 0 5
12 7 26 4 19 -3 24 -1 18 8 -5 9 -1 8 12 -2 10 -8 16 -10 12 -6 -4 5 -3 15 3
23 9 10 6 13 -15 13 -14 0 -26 4 -26 9 0 9 21 8 110 -5z"/>
<path d="M11053 2607 c13 -11 15 -16 5 -20 -9 -3 -6 -7 7 -11 43 -15 91 -42
123 -70 39 -34 92 -133 93 -173 0 -15 4 -37 9 -48 7 -17 9 -14 10 15 l2 35 11
-34 c10 -31 4 -85 -17 -156 -4 -11 3 -2 14 20 22 44 27 136 10 195 -15 53 -71
140 -109 169 -19 14 -32 20 -27 14 10 -17 1 -16 -34 2 -18 9 -30 24 -30 35 0
11 -3 20 -7 21 -14 1 -38 7 -58 14 -19 6 -19 6 -2 -8z"/>
<path d="M1366 3062 c-4 -7 -19 -9 -37 -5 -29 5 -30 4 -27 -23 2 -21 9 -29 23
-29 11 -1 41 -7 67 -14 25 -7 69 -11 96 -10 28 2 48 1 45 -3 -2 -5 -14 -8 -26
-8 -20 0 -19 -2 7 -15 35 -18 36 -18 36 0 0 12 20 15 116 15 95 0 115 -3 111
-14 -5 -11 11 -13 86 -11 51 2 94 4 96 4 3 1 -6 13 -20 29 -15 17 -9 14 14 -8
21 -19 40 -34 43 -32 2 1 46 2 97 1 l92 0 -68 -24 c-38 -13 -71 -25 -73 -28
-6 -6 53 -56 60 -51 3 2 4 1 1 -3 -6 -8 45 -63 58 -63 5 0 4 7 -3 15 -7 8 -8
15 -3 15 5 0 15 18 22 40 8 29 24 50 54 71 35 26 48 29 87 25 25 -2 49 -5 53
-5 4 -1 5 -17 1 -37 -5 -26 -3 -39 7 -45 11 -7 11 -11 2 -17 -18 -11 -30 -51
-38 -118 -3 -32 -8 -72 -11 -89 -3 -24 -2 -26 5 -10 8 17 10 16 10 -11 1 -16
7 -36 14 -44 6 -8 2 -6 -10 4 -20 16 -23 17 -28 3 -8 -19 -45 -10 -46 12 -1 9
0 26 0 38 2 24 -34 54 -55 46 -10 -4 -12 -17 -7 -51 6 -46 19 -66 35 -56 4 3
8 1 8 -5 0 -6 15 -15 33 -20 26 -8 17 -9 -48 -8 l-80 2 1 92 0 91 -94 7 c-119
9 -276 1 -322 -16 -25 -10 -35 -20 -35 -34 0 -11 -4 -26 -9 -32 -6 -10 0 -13
22 -13 21 0 33 -6 36 -18 3 -10 30 -36 58 -57 29 -22 69 -54 88 -72 42 -37 53
-39 370 -49 118 -4 224 -8 235 -9 11 -1 37 -2 57 -3 l36 -2 0 -60 c-1 -33 -4
-60 -7 -60 -8 0 5 -174 19 -261 7 -38 15 -69 18 -69 10 0 100 35 105 40 3 3 8
38 11 79 6 62 4 76 -11 94 -16 20 -16 20 0 8 16 -12 17 -9 18 45 0 33 4 79 9
104 6 36 8 24 8 -62 0 -58 3 -111 7 -118 3 -6 8 -25 10 -43 7 -57 12 -71 24
-75 9 -3 9 -7 0 -18 -8 -10 -8 -14 0 -14 6 0 18 -15 27 -32 30 -58 125 -157
193 -201 68 -44 89 -55 154 -81 26 -11 36 -20 31 -28 -5 -10 -4 -10 6 -1 11
10 11 15 -1 29 -8 11 0 8 19 -7 31 -22 42 -24 150 -24 140 0 225 23 334 88 77
46 188 152 211 201 27 59 61 131 63 134 1 2 29 -2 63 -8 120 -22 268 30 338
118 20 26 43 52 50 58 15 13 -96 24 -250 24 l-98 0 3 88 3 87 55 7 c30 3 60 2
65 -2 6 -5 108 -9 226 -9 l215 0 -4 37 c-3 24 -15 48 -34 69 -31 32 -44 87
-26 110 10 13 -20 55 -34 47 -4 -3 -8 0 -8 7 0 7 -8 5 -21 -7 -12 -10 -23 -18
-25 -16 -12 7 -34 0 -29 -9 4 -6 13 -8 21 -5 7 3 28 0 46 -6 28 -10 30 -12 12
-19 -10 -4 -110 -8 -222 -8 l-202 -1 4 -22 c10 -50 15 -102 8 -88 -4 8 -13 16
-19 17 -17 4 -48 -56 -44 -84 2 -17 -3 -23 -16 -23 -15 0 -23 18 -41 93 -24
98 -94 256 -141 316 -15 20 -41 56 -56 81 l-28 44 31 -25 c62 -53 128 -143
161 -221 20 -48 38 -65 28 -28 -3 11 -1 18 4 14 5 -3 9 0 9 6 0 6 10 24 21 40
12 16 19 36 16 45 -4 10 -2 15 6 13 6 -1 39 2 72 6 53 7 57 9 35 18 -15 6 -20
12 -12 15 6 3 12 15 12 29 0 18 4 22 18 17 9 -4 20 -11 24 -17 5 -7 8 -7 8 2
0 21 30 13 40 -10 8 -21 9 -20 9 8 1 24 5 31 19 30 9 0 19 -4 22 -8 3 -4 87
-8 185 -8 99 -1 192 -4 208 -7 l27 -5 0 -131 c0 -99 3 -128 11 -120 15 15 13
185 -2 234 -6 19 -13 53 -16 77 -4 41 -3 43 16 33 24 -13 61 -14 61 -2 0 5 9
7 20 4 16 -4 20 -14 20 -53 0 -45 1 -47 28 -45 15 1 64 3 110 3 65 2 82 5 82
17 0 8 5 15 10 15 6 0 10 -7 10 -15 0 -13 29 -15 205 -15 176 0 205 -2 205
-15 0 -8 5 -15 11 -15 5 0 7 5 4 10 -3 6 4 10 18 10 16 0 28 -9 37 -27 l14
-28 7 45 c3 25 7 35 7 23 2 -19 5 -21 32 -13 25 7 32 5 45 -13 15 -21 15 -21
15 5 0 23 3 26 26 22 17 -3 23 -1 19 7 -4 6 4 3 18 -6 22 -14 64 -17 293 -21
146 -2 270 -7 275 -10 5 -3 6 -16 3 -28 -5 -21 -1 -24 42 -30 69 -9 124 -7
124 4 0 6 6 10 14 10 8 0 18 9 21 20 8 25 66 28 86 4 12 -14 14 -14 20 3 7 15
8 16 8 1 1 -9 -6 -24 -15 -32 -14 -15 -13 -16 8 -17 22 0 22 -1 3 -10 -13 -6
35 -8 135 -6 174 3 203 12 214 68 4 20 11 29 19 26 7 -3 49 1 93 8 43 7 130
18 193 25 68 8 119 19 127 28 8 8 27 18 42 22 16 6 -81 9 -248 9 -151 0 -506
5 -789 10 -331 7 -520 7 -532 1 -11 -7 -27 -6 -44 0 -14 5 -63 10 -107 10 -75
0 -80 -1 -67 -17 13 -17 13 -17 -7 -1 -18 16 -54 19 -293 25 l-273 6 5 -31 c5
-29 3 -32 -19 -32 -20 0 -24 5 -24 29 l0 28 -127 6 c-92 3 -133 1 -147 -7 -16
-10 -25 -10 -45 0 -19 9 -119 13 -366 14 -187 1 -347 1 -355 1 -8 -1 -100 3
-205 8 -266 14 -1386 22 -1357 11 24 -10 29 -29 10 -48 -12 -12 -124 -17 -152
-6 -21 8 -20 41 2 53 9 5 34 9 55 9 21 0 41 3 45 7 4 4 -96 6 -223 4 -126 -2
-234 -1 -240 2 -5 3 -32 7 -60 8 l-50 3 25 -29 25 -28 -31 28 c-21 18 -41 27
-65 27 -42 0 -53 -8 -57 -39 -1 -14 -4 -26 -6 -28 -2 -2 -41 -3 -87 -1 l-84 3
31 17 c18 10 50 20 73 24 64 10 48 24 -26 24 -38 0 -118 3 -179 6 -77 5 -113
3 -118 -4z m2099 -433 c51 -14 163 -88 191 -126 53 -72 77 -136 82 -219 5 -96
-12 -165 -61 -242 -39 -61 -82 -94 -175 -129 -58 -22 -78 -24 -157 -21 -127 7
-191 34 -276 119 -49 50 -69 78 -79 113 -11 40 -15 45 -29 34 -14 -12 -15 -11
-1 6 10 13 14 35 12 67 -4 53 21 131 68 214 46 80 129 149 219 181 45 16 152
18 206 3z"/>
<path d="M8410 2878 c0 -84 -3 -163 -6 -175 l-6 -23 168 1 c93 1 158 4 144 8
-21 6 -22 8 -7 14 26 10 21 54 -10 83 -15 14 -19 22 -10 18 14 -5 17 0 16 22
0 16 -3 23 -6 17 -8 -21 -44 -15 -50 8 -4 16 -8 18 -14 7 -7 -11 -11 -10 -19
2 -8 13 -10 13 -10 -1 0 -8 -11 -26 -24 -38 -15 -14 -22 -29 -19 -40 5 -13 2
-12 -16 4 -31 27 -55 10 -59 -43 l-3 -41 68 -4 68 -3 -77 -1 -77 0 6 28 c3 15
0 65 -6 111 -9 68 -15 120 -20 191 -1 4 -8 7 -16 7 -13 0 -15 -24 -15 -152z"/>
<path d="M8720 2960 c0 -69 20 -254 29 -268 8 -12 811 -23 811 -11 0 5 -6 8
-12 6 -7 -1 -12 3 -11 9 2 11 -198 214 -210 214 -4 0 -7 -5 -7 -11 0 -5 5 -7
12 -3 7 4 8 3 4 -4 -9 -16 -11 -15 -32 6 -17 16 -18 16 -11 0 5 -15 1 -18 -29
-18 -19 0 -33 4 -30 9 3 5 -2 12 -11 16 -10 3 -19 1 -21 -4 -2 -6 -8 -11 -13
-11 -6 0 -8 4 -5 9 6 10 -270 25 -349 19 -35 -2 -50 -8 -51 -18 -1 -8 -2 -26
-3 -40 l-3 -25 -8 25 c-4 14 -9 18 -10 10 -4 -24 -19 61 -19 108 -1 23 -5 42
-11 42 -6 0 -10 -27 -10 -60z"/>
<path d="M10254 3011 c-5 -3 -10 -13 -12 -21 -2 -8 -25 -53 -50 -100 l-46 -85
-12 40 c-7 23 -13 32 -14 20 -1 -19 -2 -19 -12 3 -6 12 -15 22 -20 22 -5 0 -4
-9 2 -19 16 -31 12 -31 -21 0 -29 27 -36 29 -123 30 -289 5 -339 4 -343 -8 -3
-9 -10 -10 -23 -3 -10 5 -26 7 -35 4 -9 -4 -40 -1 -68 6 -29 6 -68 10 -87 8
l-34 -3 63 -67 c35 -38 68 -65 74 -61 5 3 7 2 4 -4 -4 -5 7 -23 23 -38 16 -15
26 -33 23 -39 -3 -6 -2 -8 2 -3 5 4 15 1 24 -7 21 -18 705 -32 699 -14 -3 7
-11 13 -19 16 -11 3 -11 2 1 -7 13 -9 13 -11 -2 -11 -10 0 -18 7 -18 15 0 8 6
15 13 15 7 0 13 9 14 21 3 31 78 151 131 207 42 44 51 49 80 45 17 -3 32 -3
32 0 0 3 -39 10 -87 17 -49 6 -102 15 -119 20 -17 4 -35 5 -40 1z"/>
<path d="M4925 2604 c-45 -47 -85 -116 -85 -145 l0 -27 307 -1 c168 -1 309 -3
312 -5 3 -2 247 -6 541 -10 294 -3 589 -9 654 -12 109 -6 119 -5 113 10 -4 10
-3 15 3 11 6 -3 10 -1 10 5 0 6 4 9 9 5 5 -3 12 -1 16 5 4 6 12 7 18 3 8 -4 7
-1 -1 9 -9 11 -10 18 -2 23 5 3 10 4 10 1 0 -3 11 5 25 18 25 23 32 24 108 10
l37 -7 0 37 c0 32 3 36 25 36 16 0 25 -6 25 -15 0 -8 8 -15 18 -15 10 0 28 -9
40 -20 15 -14 35 -20 67 -20 33 0 45 -4 42 -12 -2 -8 -22 -13 -49 -13 -25 0
-53 -7 -64 -15 -10 -9 -15 -10 -10 -2 5 8 0 12 -13 12 -17 0 -21 -6 -21 -30 0
-25 -4 -29 -22 -27 -29 3 -38 15 -38 49 0 20 -4 26 -15 22 -8 -4 -15 -14 -15
-25 0 -19 -33 -43 -44 -32 -3 3 -6 0 -6 -9 0 -13 39 -16 272 -21 149 -4 315
-7 368 -7 93 0 98 1 102 23 5 30 -2 63 -11 49 -5 -8 -67 -12 -189 -13 -169 -1
-182 -3 -187 -20 -4 -11 -11 -17 -16 -14 -11 7 -12 112 -1 118 4 2 96 -2 205
-7 109 -6 200 -10 201 -9 1 2 1 16 -2 32 l-4 30 -182 0 c-99 0 -254 3 -344 7
-150 6 -164 5 -184 -12 -15 -12 -18 -13 -10 -3 11 15 -1 17 -130 22 -79 4
-260 7 -403 7 -143 0 -280 3 -305 6 l-45 6 40 -41 c21 -22 47 -41 56 -41 10 0
21 -4 24 -10 3 -5 1 -10 -6 -10 -7 0 -5 -9 7 -22 10 -13 12 -18 4 -11 -14 10
-48 18 -60 13 -22 -8 -58 -5 -72 7 -15 14 -15 17 -2 30 8 9 25 13 39 10 33 -6
31 3 -7 40 l-33 31 -320 6 c-176 3 -422 9 -547 13 l-226 6 -27 -29z"/>
<path d="M7740 2550 l0 -30 148 -1 c189 -2 176 1 180 -32 5 -39 -5 -62 -21
-51 -6 5 -77 9 -156 9 l-144 0 -8 -27 -7 -28 71 -1 c40 -1 147 -4 240 -8 92
-3 167 -3 167 0 0 3 17 6 38 7 20 1 49 4 65 8 27 6 27 6 27 88 l0 83 -122 7
c-68 3 -203 6 -300 6 l-178 -1 0 -29z"/>
</g>
</svg>
